<svg width="569" height="363" viewBox="0 0 569 363" fill="none" xmlns="http://www.w3.org/2000/svg" xmlns:xlink="http://www.w3.org/1999/xlink">

    <g filter="url(#filter0_d_3_2301)">
        <rect x="4" width="561" height="355" rx="30" fill="#0E8BFF"/>
        <mask id="mask0_3_2301" style="mask-type:alpha" maskUnits="userSpaceOnUse" x="4" y="0" width="561" height="355">
        <rect x="4" width="561" height="355" rx="30" fill="#16084C"/>
        </mask>

        <g mask="url(#mask0_3_2301)">
            <rect x="2" y="0.233398" width="568" height="355" fill="url(#pattern0)" fill-opacity="0.2"/>
            <circle cx="376.933" cy="33.8467" r="201.5" fill="white" fill-opacity="0.2"/>
            <circle cx="542.863" cy="38.8936" r="201.5" fill="white" fill-opacity="0.17"/>
        </g>

        <g opacity="0.7">
            <rect x="463.7" y="265.95" width="56.6" height="42.7905" rx="6.55" fill="white" fill-opacity="0.26" stroke="white" stroke-width="1.4"/>
            <path d="M463.906 278.844H479.313C481.315 278.844 482.938 280.467 482.938 282.469V289.492M482.938 308.569V300.141M482.938 300.141V289.492M482.938 300.141H463.906M482.938 289.492H463.906" stroke="white" stroke-width="1.4"/>
            <path d="M520.094 278.844H501.969M501.969 278.844V289.492M501.969 278.844V266.156M501.969 308.569V300.141M501.969 300.141V289.492M501.969 300.141H520.094M501.969 289.492H520.094" stroke="white" stroke-width="1.4"/>
        </g>


        <path fill-rule="evenodd" clip-rule="evenodd" d="M39.1576 54.8636L39.1516 54.8716L39.1459 54.8797C38.8266 55.3318 38.1114 55.4646 37.552 55.0696C37.1043 54.7533 36.9697 54.0487 37.351 53.4918C37.9198 52.7666 38.333 51.9188 38.6044 51.0901C38.8869 50.2273 39.0183 49.2469 39.0131 48.2853C39.008 47.3237 38.8662 46.3447 38.5745 45.485C38.2943 44.6592 37.8722 43.8158 37.2956 43.0967C36.9084 42.5439 37.0355 41.8379 37.4799 41.5169C38.035 41.1159 38.7516 41.2412 39.0757 41.6898L39.0815 41.6979L39.0875 41.7058C39.8051 42.6521 40.3937 43.7035 40.7455 44.735C41.1157 45.9485 41.3516 47.1223 41.3577 48.2728C41.3642 49.4835 41.2485 50.6295 40.8042 51.7576C40.3203 52.9862 39.8517 53.9277 39.1576 54.8636ZM44.3463 57.1108L44.3603 57.091L44.3732 57.0704C45.9637 54.522 46.8811 51.447 46.8641 48.2435C46.847 45.0408 45.8974 41.9764 44.2805 39.4455C43.9301 38.8899 44.0875 38.2329 44.6781 37.8063C45.0748 37.5197 45.8194 37.6212 46.2612 38.2133C48.0867 41.1096 49.1894 44.6108 49.2087 48.231C49.2286 51.9748 48.1641 55.3623 46.3679 58.2798C45.9524 58.8517 45.3163 59.0119 44.7677 58.6878C44.1731 58.2521 44.0644 57.51 44.3463 57.1108ZM53.6573 34.4063L53.673 34.4373L53.6911 34.4669C56.1647 38.4997 57.5393 43.1514 57.5661 48.1865C57.5929 53.2192 56.2692 57.8834 53.8408 61.941C53.4685 62.5396 52.84 62.7084 52.2027 62.4118C51.6228 62.0339 51.467 61.4075 51.7699 60.7749C53.8351 57.1072 55.1193 52.7852 55.0949 48.1996C55.0706 43.6346 53.8769 39.3194 51.6318 35.6515C51.328 35.0252 51.4784 34.4014 52.0515 34.0191C52.7429 33.6888 53.4164 33.9309 53.6573 34.4063ZM60.9815 30.5684L60.9922 30.5895L61.004 30.61C64.0016 35.7915 65.7627 41.7153 65.7969 48.1427C65.8311 54.5633 64.1367 60.5 61.2001 65.7092C60.8271 66.301 60.2015 66.4667 59.5673 66.1715C58.9892 65.7948 58.8326 65.1712 59.1317 64.5406C61.9607 59.7123 63.4841 54.1185 63.4523 48.1551C63.4205 42.1764 61.7035 36.6042 58.9609 31.8236C58.6172 31.1257 58.8594 30.4422 59.3391 30.1992C60.0431 29.8424 60.7363 30.0846 60.9815 30.5684Z" fill="url(#paint3_linear_3_2301)"/>
    </g>

    <defs>
        <filter id="filter0_d_3_2301" x="0" y="0" width="569" height="363" filterUnits="userSpaceOnUse" color-interpolation-filters="sRGB">
            <feFlood flood-opacity="0" result="BackgroundImageFix"/>
            <feColorMatrix in="SourceAlpha" type="matrix" values="0 0 0 0 0 0 0 0 0 0 0 0 0 0 0 0 0 0 127 0" result="hardAlpha"/>
            <feOffset dy="4"/>
            <feGaussianBlur stdDeviation="2"/>
            <feComposite in2="hardAlpha" operator="out"/>
            <feColorMatrix type="matrix" values="0 0 0 0 0 0 0 0 0 0 0 0 0 0 0 0 0 0 0.25 0"/>
            <feBlend mode="normal" in2="BackgroundImageFix" result="effect1_dropShadow_3_2301"/>
            <feBlend mode="normal" in="SourceGraphic" in2="effect1_dropShadow_3_2301" result="shape"/>
        </filter>

        <linearGradient id="paint3_linear_3_2301" x1="51.3501" y1="30.075" x2="51.5434" y2="66.3604" gradientUnits="userSpaceOnUse">
            <stop stop-color="white" stop-opacity="0.73"/>
            <stop offset="1" stop-color="white"/>
        </linearGradient>
    </defs>
</svg>
